<svg xmlns="http://www.w3.org/2000/svg" width="256" height="256"><path fill="#1976D2" fill-opacity=".016" fill-rule="evenodd" d="M0 128.004v128.004l128.25-.254 128.25-.254.254-127.75L257.008 0H0zm.485.496c0 70.4.119 99.053.265 63.672s.146-92.98 0-128S.485 58.1.485 128.5"/><path fill="#1976D2" fill-opacity=".215" fill-rule="evenodd" d="M112.342 1.479c-21.322 3.87-28.268 9.262-27.056 21.007.658 6.376 3.131 9.978 7.412 10.797 1.398.267 6.875-.637 12.171-2.009 12.907-3.344 29.864-3.51 41.631-.409 11.229 2.96 26.529 10.83 36.26 18.652 18.564 14.923 32.212 39.455 36.708 65.983 6.181 36.467-4.885 68.407-31.468 90.83-5.459 4.605-3.602 3.838 4.504-1.86 7.346-5.163 18.78-17.052 24.499-25.474 6.295-9.27 11.805-21.772 14.206-32.231 1.733-7.555 2.134-12.588 2.168-27.265.046-19.999-1.388-29.907-6.268-43.29-4.232-11.607-4.368-12.183-1.463-6.21 1.471 3.025 3.027 5.642 3.458 5.815s.507 1.034.17 1.914c-.397 1.033-.216 1.353.512.903.645-.398 1.884.494 2.897 2.086.974 1.53 2.184 3.074 2.69 3.431s.642 1.37.304 2.25c-.338.881-.229 1.601.241 1.601s1.215 2.137 1.655 4.75c.553 3.281.923 4.027 1.195 2.413.587-3.484-2.711-17.316-3.947-16.553-.66.409-.791-.13-.361-1.485.392-1.233.24-2.125-.361-2.125-.57 0-.749-.749-.398-1.664.404-1.053.243-1.42-.438-.999-.697.431-.877-.096-.512-1.492.42-1.607.229-1.951-.748-1.347-.853.528-1.071.421-.622-.306 2.032-3.287-12.611-25.219-24.535-36.749-18.01-17.414-36.152-26.951-58.874-30.949-10.17-1.79-25.811-1.796-35.63-.015M71.75 21.162c-1.513.553-2.75 1.444-2.75 1.98 0 .537-.45.698-1 .358s-1-.216-1 .274c0 .491-.579.893-1.287.893-5.209 0-27.543 19.982-36.945 33.055-27.101 37.68-31.421 86.862-11.201 127.506 13.026 26.184 34.518 47.621 60.096 59.946 14.327 6.904 26.563 9.875 43.451 10.551 21.322.854 38.103-2.458 56.472-11.146 13.376-6.326 23.667-13.684 34.974-25.006 18.397-18.42 30.12-40.397 36.075-67.626 1.431-6.54 1.837-12.511 1.798-26.447-.055-19.719-1.667-29.655-7.006-43.181C240.989 76.141 234.258 63 233.532 63c-.163 0 1.248 4.838 3.134 10.75 4.532 14.2 6.071 21.74 6.893 33.774 3.222 47.134-23.175 94.629-64.357 115.796-17.503 8.996-32.685 12.215-53.905 11.427-15.824-.587-26.028-3.073-40.145-9.782-32.954-15.66-55.762-41.786-64.742-74.159-3.502-12.625-4.433-35.12-1.99-48.081 6.145-32.605 25.147-60.226 52.433-76.218 7.933-4.65 8.518-8.128.897-5.345m-2.25 9.865c-37.052 25.821-54.822 65.61-48.023 107.528 3.907 24.089 14.262 43.373 32.775 61.034 26.745 25.516 58.049 36.239 90.248 30.915 4.95-.819 11.064-2.123 13.586-2.899 5.814-1.788 19.914-7.639 19.914-8.263 0-.605-5.539-5.323-8.906-7.585-3.526-2.37-6.28-2.203-12.068.73-9.094 4.608-19.446 6.841-31.526 6.799-41.307-.143-80.328-32.245-92.122-75.786-2.454-9.064-2.71-11.639-2.728-27.5-.018-15.866.23-18.434 2.661-27.5C39.61 65.008 52.907 45.08 71.5 31.268c7.037-5.227 7.109-5.29 5.917-5.193-.505.041-4.067 2.269-7.917 4.952m42.5 5.665c-5.43.911-9.06 2.568-10.984 5.015C99.135 44.098 99 45.727 99 66.085v21.816l-24.584.299-24.583.3-2.917 3.266L44 95.032l.015 25.734c.016 27.683.205 28.847 5.307 32.638 2.649 1.968 4.073 2.096 23.249 2.096h20.428v17.282c.001 19.622.526 21.761 6.717 27.347 12.242 11.046 37.136 11.251 47.284.39 2.479-2.653 2.503-2.854 2.806-23.597l.306-20.922h22.476c24.341 0 27.789-.593 30.881-5.312 1.417-2.164 1.586-5.921 1.327-29.562l-.296-27.084-2.771-2.771-2.771-2.771-24.426-.299-24.426-.3-.303-22.539-.303-22.539-2.647-2.274c-4.077-3.505-23.889-5.697-34.853-3.857M220 60c.589 1.1 1.295 2 1.57 2s.019-.9-.57-2-1.295-2-1.57-2-.019.9.57 2m-91.75 16.735c4.746.374 6.304 1.712 3 2.576-.963.251-.287.509 1.5.573L136 80l.136 7.75c.075 4.263.343 6.625.596 5.25s.876-3.008 1.385-3.628c.551-.672.567-2.089.039-3.5-.488-1.305-.529-3.272-.092-4.372 2.026-5.095 1.49-5.513-6.814-5.32-5.447.127-6.339.292-3 .555m92.306 5.175c-.799 1.292.474 4.189 1.549 3.525.492-.304.895-1.003.895-1.553s-.526-.675-1.17-.277c-.787.486-.961.178-.531-.941.681-1.774.193-2.269-.743-.754m2.166 4.731c-.306.494.499 4.539 1.788 8.989 3.118 10.764 4.887 26.768 4.185 37.856l-.57 9.014 1.524-5.5c2.208-7.97 1.289-25.616-1.991-38.224-2.676-10.285-4.027-13.606-4.936-12.135m-56.972 8.103c4.537.185 11.963.185 16.5 0s.825-.337-8.25-.337-12.787.152-8.25.337m1.5 1.999c4.262.188 11.238.188 15.5 0 4.262-.187.775-.341-7.75-.341s-12.012.154-7.75.341M239.232 101c0 1.925.206 2.713.457 1.75.252-.963.252-2.537 0-3.5-.251-.963-.457-.175-.457 1.75M98.25 106.415c-1.787.819-3.25 1.623-3.251 1.787s11.137.167 24.75.006 29.285.161 34.827.715c9.46.945 10.53.858 17.5-1.425 4.083-1.338 5.849-2.109 3.924-1.715-3.929.805-9.065.786-47.5-.179-22.81-.572-27.504-.446-30.25.811m52.13 13.853c-11.643 7.503-12.235 7.928-8.68 6.246 4.355-2.06 5.924-1.986 4.172.196-1.876 2.339 8.089-3.306 10.306-5.837 1.642-1.876 1.686-1.868 2.113.356.24 1.249.498.359.573-1.979s.023-4.242-.114-4.232-3.904 2.373-8.37 5.25m17.62-2.327c0 1.068.45 2.219 1 2.559.567.351 1-.49 1-1.941 0-1.407-.45-2.559-1-2.559s-1 .873-1 1.941m-73.11.309c1.236 1.596.87 2.189-1.151 1.865-2.014-.323 2.366 4.362 7.351 7.862 7.926 5.567 15.197 8.231 22.525 8.254 8.863.028 11.355-1.74 3.596-2.551-7.641-.799-15.397-3.708-23.019-8.634-3.309-2.139-6.353-3.587-6.764-3.217-.412.369-.462.169-.112-.445s-.357-1.964-1.572-3c-1.838-1.568-1.982-1.59-.854-.134m40.376 31.087c-5.75 2.347-8.184 5.161-3.489 4.033 4.409-1.059 10.342-4.368 9.699-5.408-.327-.529-.68-.917-.785-.862s-2.546 1.062-5.425 2.237m-17.187.246c.048 1.165.285 1.402.604.605.289-.722.253-1.585-.079-1.917s-.568.258-.525 1.312M139 158.148c-2.475 1.053-3.32 1.682-1.879 1.397 2.38-.471 2.679-.174 3.239 3.218.34 2.055.675 5.987.745 8.737s.352 4.1.627 3 .918-2.264 1.429-2.587.796-3.982.634-8.133l-.295-7.546zm-18.921 2.435c.048 1.165.285 1.402.604.605.289-.722.253-1.585-.079-1.917s-.568.258-.525 1.312m8.079 1.417c0 1.375.227 1.938.504 1.25.278-.687.278-1.812 0-2.5-.277-.687-.504-.125-.504 1.25m-7.079 4.583c.048 1.165.285 1.402.604.605.289-.722.253-1.585-.079-1.917s-.568.258-.525 1.312m-85.749 3c-.364.949.305 2.452 1.669 3.75 1.252 1.192 1.982 1.636 1.622.986s-.195-1.464.365-1.811c.691-.426.684-1.255-.018-2.569-1.258-2.349-2.815-2.501-3.638-.356m.685.608c-.008.93.435 1.969.985 2.309 1.266.782 1.266-.542 0-2.5-.835-1.293-.971-1.266-.985.191m91.798 24.492c.721.289 1.584.253 1.916-.079s-.258-.568-1.312-.525c-1.165.048-1.402.285-.604.604m.687 4.402c-1.65.373-2.55.799-2 .947s-.8.599-3 1.003c-3.306.607-3.009.672 1.709.37 3.14-.201 7.19-.972 9-1.714l3.291-1.348-3 .031c-1.65.018-4.35.337-6 .711"/><path fill="#1976D2" fill-opacity=".213" fill-rule="evenodd" d="M115.399 1.456C97.143 4.292 87.238 9.219 85.447 16.354c-1.101 4.387.472 11.656 3.088 14.272 2.99 2.99 7.068 3.065 16.728.309 36.758-10.489 79.741 8.914 100.587 45.406 8.889 15.559 13.314 29.719 15.196 48.625 1.937 19.466-.449 34.268-8.183 50.767-1.744 3.722-3.102 7.105-3.017 7.517s-.296.75-.846.75-1 .675-1 1.5-.477 1.5-1.059 1.5-.79.435-.461.967-.32 1.541-1.441 2.241c-1.122.7-2.039 1.795-2.039 2.432 0 .638-2.511 3.454-5.581 6.26-3.069 2.805-5.342 5.1-5.052 5.1 1.809 0 13.509-11.261 18.981-18.269 6.112-7.827 14.661-22.023 14.593-24.231-.017-.55-1.153 1.025-2.523 3.5-2.236 4.036-2.445 4.191-2.029 1.5.255-1.65 1.711-7.275 3.236-12.5 2.567-8.799 2.774-10.828 2.8-27.5.024-15.209-.306-19.318-2.129-26.5-4.858-19.141-13.204-34.389-26.572-48.552-4.828-5.113-8.346-9.563-7.82-9.889.963-.595 2.552 1.158 2.581 2.846.008.497.915 1.027 2.015 1.178 2.672.365 11.62 10.162 17.676 19.353 6.212 9.428 10.459 18.285 13.937 29.064 1.73 5.362 2.813 7.577 2.933 6 .18-2.356.234-2.328.954.5.758 2.978.764 2.981.882.338.174-3.93-2.378-16.406-4.877-23.838-5.035-14.976-13.188-28.071-25.388-40.779C194.279 28.578 191.85 25 194 25c.453 0 .707-.787.566-1.75-.141-.962-.696-1.75-1.233-1.75s-1.757-.781-2.711-1.735c-2.444-2.444-12.805-8.398-19.485-11.197-8.982-3.763-15.892-5.571-27.137-7.101-12.452-1.693-17.755-1.695-28.601-.011M188 23.878c3.967 3.477 4.667 3.727 4.667 1.666 0-.801-.378-1.222-.84-.937-.463.286-2.3-.452-4.084-1.639L184.5 20.81zM62 37.092C49.168 47.487 36.063 63.968 30.006 77.327c-6.005 13.244-8.166 22.862-8.746 38.93-.569 15.775.422 25.052 3.77 35.272 1.075 3.284 1.659 4.621 1.298 2.971-.362-1.65-.697-5.7-.745-9s-.4-6.481-.782-7.068c-.41-.631.717-1.579 2.752-2.315 3.246-1.174 4.727-3.117 2.375-3.117-.716 0-.844-1.827-.385-5.5.504-4.032.362-5.5-.53-5.5-1.302 0-1.184-2.249.94-18 2.499-18.529 7.893-33.81 16.654-47.174 2.642-4.029 4.823-7.601 4.848-7.937.025-.335 3.195-3.592 7.045-7.236 6.859-6.491 8.463-8.581 3.5-4.561m50 .85c1.089.727.542.859-2 .482-5.105-.758-9.682 2.364-10.594 7.225-.593 3.161.055 34.596.842 40.851.245 1.943-.475 2.014-25.347 2.5-28.167.55-28.123.54-29.878 6.858-1.309 4.713-1.319 46.537-.012 51.242 2 7.2 2.574 7.364 27.092 7.704l21.897.304.004 18.696c.003 16.914.194 19.008 1.998 21.967 2.502 4.105 9.847 8.828 16.943 10.897 8.125 2.369 20.958 1.428 27.795-2.036 8.552-4.334 8.724-4.879 8.997-28.586l.237-20.546 24.263-.5c16.517-.34 24.948-.892 26.408-1.729 3.777-2.164 4.355-6.336 4.355-31.452 0-25.371-.628-29.479-4.85-31.739-1.289-.689-10.899-1.08-26.584-1.08H149v5h23.8c17.178 0 24.134.334 25 1.2.847.847 1.2 6.637 1.2 19.667 0 10.156-.338 18.13-.75 17.72s-.975-8.474-1.25-17.917l-.5-17.17h-24.665c-13.566 0-24.895-.229-25.176-.509-1.079-1.075-1.537-10.305-1.597-32.163L145 42.155l-3.25-1.062c-6.122-2.001-32.159-4.759-29.75-3.151M46.605 43.75c-2.677 2.612-4.557 4.188-4.178 3.5 1.457-2.636-2.374-1.133-4.414 1.732-1.168 1.64-2.661 2.877-3.318 2.75-.657-.128-1.087.317-.955.988s-.655 1.7-1.75 2.285S30 56.681 30 57.428s-.704 1.628-1.563 1.958c-.86.33-1.313 1.006-1.006 1.502s-.069 1.143-.835 1.437c-.765.293-4.358 6.528-7.984 13.854-24.408 49.319-15.079 104.429 24.35 143.859 20.814 20.813 44.267 32.289 71.869 35.166 44.306 4.619 88.257-16.735 113.591-55.191 16.529-25.089 24.781-57.708 21.726-85.879-1.236-11.393-4.67-26.41-6.163-26.949-.48-.173-.625-.96-.322-1.75.303-.789.026-1.435-.615-1.435s-.986-.338-.766-.75c.221-.412-.506-1.616-1.614-2.674-1.989-1.898-2.005-1.898-1.256 0 4.168 10.564 5.796 38.522 3.16 54.286-4.071 24.344-15.367 47.008-32.657 65.521-32.645 34.957-83.297 45.197-124.476 25.164-53.503-26.028-79.558-78.379-65.504-131.618 2.993-11.339 8.536-23.779 14.75-33.102 3.052-4.58 5.572-8.87 5.599-9.533s.38-1.001.785-.751 3.074-2.245 5.932-5.544c2.858-3.3 5.034-5.999 4.835-5.999s-2.553 2.138-5.231 4.75m88.862 13.728c-1.48 3.024-2.425 6.189-2.101 7.033.771 2.008 3.899 3.193 4.407 1.669.217-.649.98-1.18 1.697-1.18 1.546 0 2.708-6.082 1.423-7.45-.491-.523-.893-1.733-.893-2.691 0-3.759-1.969-2.621-4.533 2.619m-4.021 12.609c-1.03 1.668 1.287 3.58 2.667 2.2C135.267 71.133 134.545 69 133 69c-.485 0-1.184.489-1.554 1.087M108 85.115v9.115l-17.75-.611c-19.781-.681-38.388.27-38.956 1.99-.241.73 2.638 1.296 8.42 1.656 9.436.587 19.641 3.365 25.286 6.883l3.5 2.182-3.497.928-3.497.927 2.638 1.382c2.606 1.366 2.631 1.485 2.109 9.866-.528 8.46.421 15.738 3.329 25.531L91.077 150H103v4.842c0 11.325-1.374 32.158-2.121 32.158-.446 0-.972-4.613-1.167-10.25-.304-8.744-.346-8.386-.284 2.437.072 12.631.085 12.701 3.006 15.747 1.614 1.683 5.439 4.005 8.5 5.16 10.602 4 26.906 1.255 31.5-5.303 1.283-1.833 1.566-5.552 1.566-20.62 0-17.101-.122-18.338-1.75-17.708-2.256.873-8.15 1.746-6.5.963.688-.326 1.25-1.441 1.25-2.478 0-1.357-.491-1.718-1.75-1.287-.963.328 1.175-1.2 4.75-3.398 10.628-6.532 17.507-16.768 19.329-28.763 1.028-6.766-.279-7.285-6.961-2.768-3.227 2.182-9.468 5.866-13.868 8.188l-8 4.22 5.716-.399c3.917-.274 7.641-1.409 11.83-3.605 3.363-1.763 5.846-2.77 5.518-2.24-.328.531-.139 1.248.42 1.594.559.345 1.016.076 1.016-.598s.255-.971.566-.66c1.399 1.399-1.929 8.736-6.143 13.544-3.961 4.52-10.423 9.34-10.423 7.775 0-.275 1.35-1.198 3-2.051 2.107-1.09 3-2.288 3-4.026 0-2.225 1.159-2.973 4.095-2.644 1.376.154 5.003-7.945 4.404-9.834-.852-2.684-1.798-2.523-5.604.953-3.77 3.443-9.726 4.523-21.111 3.829-8.999-.549-16.439-3.387-24.204-9.232-7.369-5.547-10.161-9.591-8.615-12.48.601-1.123 2.092-2.283 3.314-2.578s17.273-.127 35.671.371c37.102 1.005 39.715.747 51.82-5.116 7.496-3.631 7.613-4.653.198-1.73-10.543 4.155-16.849 4.866-33.046 3.722-13.798-.974-16.547-1.613-13.922-3.235.583-.361 1-6.01 1-13.559V76h-31zM232.195 107.5c.02 1.65.244 2.204.498 1.231s.237-2.323-.037-3-.481.119-.461 1.769m-63.508 8.236c-.433.679-1.175 3.604-1.65 6.5s-1.163 6.614-1.53 8.264c-.411 1.841-.326 2.519.218 1.755.488-.685 2.099-1.346 3.579-1.468 2.064-.171 2.563-.631 2.137-1.972-.305-.963-.873-4.577-1.26-8.032-.413-3.67-1.033-5.769-1.494-5.047m62.508 22.764c.02 1.65.244 2.204.498 1.231s.237-2.323-.037-3-.481.119-.461 1.769m-113.186 4.25c.006.412.906 5.181 2 10.597 3.227 15.96 3.482 15.089-8.126 27.732-5.565 6.061-9.802 11.335-9.417 11.72.961.96 38.825.215 39.877-.784 1.227-1.165-.492-3.876-8.342-13.154-4.529-5.354-7.001-9.145-7.001-10.736 0-4.385 2.122-15.491 3.988-20.875l1.82-5.25h-7.404c-4.072 0-7.4.338-7.395.75m111.547 3.806c-.377 2.006-.485 3.848-.241 4.093.245.244.753-1.198 1.129-3.205.377-2.006.485-3.848.241-4.093-.245-.244-.753 1.198-1.129 3.205m-75.244.852-2.799 2.408 2.653-.507c1.485-.284 2.871-1.344 3.15-2.408.638-2.442.372-2.397-3.004.507M227.2 155.7c-.624 2.034-.97 3.864-.767 4.066s.907-1.267 1.567-3.266 1.005-3.828.767-4.066-.943 1.232-1.567 3.266M31.01 167.5c.002.55.897 2.35 1.99 4 2.589 3.91 2.592 2.52.004-1.726-1.098-1.801-1.995-2.824-1.994-2.274m5.683 10.577c.994 1.692 2.446 3.605 3.227 4.25s.159-.739-1.383-3.077c-3.237-4.908-4.513-5.72-1.844-1.173m121.46 34.776c.255 1.966-.277 3.189-1.153 2.647-.55-.34-1-.19-1 .334s.65 1.201 1.443 1.506c.967.371 1.277 1.472.94 3.334-.598 3.298-.671 3.388-3.041 3.784-1.013.169-1.726.82-1.585 1.446.165.731-.729.949-2.5.611-1.516-.29-2.082-.217-1.257.161.972.446-.261 1.11-3.5 1.887-3.308.794-4.124 1.24-2.41 1.318 5.683.261 32.91-8.612 32.91-10.724 0-.361-1.651-1.974-3.668-3.584s-3.282-2.285-2.808-1.5c.727 1.206.606 1.221-.784.094-1.757-1.424-6.74-2.333-6.74-1.229 0 .364.563 1.229 1.25 1.921 1.002 1.01.903 1.127-.5.593-.963-.366-1.75-1.015-1.75-1.442s-.885-1.008-1.966-1.291-1.928-.223-1.881.134M90 234c0 .55.477 1 1.059 1s.781-.45.441-1-.816-1-1.059-1-.441.45-.441 1m16 5.025c0 2.051-2.419 2.725-3.5.975-.974-1.576-2.501-1.166-1.862.5.317.825.126 1.5-.424 1.5s-1.259-.675-1.576-1.5c-.316-.825-1.291-1.5-2.166-1.5-.874 0-1.312.45-.972 1 .807 1.306.531 1.275-4.53-.511-2.355-.831-4.466-1.327-4.69-1.102-.971.971 12.548 4.601 15.27 4.1 1.623-.299 4.3-.12 5.95.399 2.889.907 2.908.95.5 1.143-4.874.392 5.29 1.86 12 1.733 5.346-.101 5.666-.189 1.802-.495-3.407-.27-4.558-.739-4.187-1.706.653-1.703-4.141-5.077-8.365-5.888-2.78-.533-3.25-.337-3.25 1.352m-3.187 4.658c.721.289 1.584.253 1.916-.079s-.258-.568-1.312-.525c-1.165.048-1.402.285-.604.604"/><path fill="#1976D2" fill-opacity=".445" fill-rule="evenodd" d="M106.5 5.402c-4.4.719-8.322 1.13-8.716.915-1.406-.771-8.512 3.619-10.321 6.375-3.63 5.53-1.754 16.943 3.152 19.178 3.443 1.569 5.352 1.435 13.648-.957 11.251-3.245 28.871-3.702 40.011-1.037 11.591 2.772 21.331 7.012 31.212 13.586 9.518 6.333 22.506 19.484 27.944 28.294 2.12 3.434 4.267 6.244 4.771 6.244s.639.45.299 1-.115 1 .5 1 .84.45.5 1-.115 1 .5 1 .869.403.565.895c-.305.493.166 1.171 1.044 1.509.941.36 1.355 1.248 1.006 2.156-.326.849-.194 1.298.292.998s1.141.126 1.457.948c.315.822 1.375 1.508 2.355 1.526 2.654.047 5.061 2.245 5.835 5.326.377 1.504.903 2.518 1.169 2.252.882-.882-3.914-13.995-8.086-22.11-10.688-20.785-27.334-36.806-48.785-46.955-15.809-7.479-32.736-10.897-49.432-9.983-9.774.536-6.227-.97 4.697-1.994 13.183-1.235 34.816 3.813 50.594 11.807 7.155 3.625 16.628 10.158 25.48 17.571 3.93 3.291 4.534 3.603 2.324 1.201-1.749-1.903-3.046-4.467-3.133-6.197-.169-3.371.298-3.563 3.395-1.393 1.223.856 2.223 1.236 2.223.845 0-1.474 4.399 3.329 8.792 9.598 5.082 7.254 6.971 9.512 5.417 6.478-2.406-4.698-11.039-15.425-17.67-21.956C186.43 21.611 169.26 11.549 152.5 6.957c-10.035-2.749-33.779-3.552-46-1.555m.313 14.281c.721.289 1.584.253 1.916-.079s-.258-.568-1.312-.525c-1.165.048-1.402.285-.604.604M200.5 38c.995 1.1 2.035 2 2.31 2s-.315-.9-1.31-2-2.035-2-2.31-2 .315.9 1.31 2M104 41.752l-3.5 1.748-.275 15.643-.275 15.642 4.025.384 4.025.384V57.776c0-9.777-.112-17.775-.25-17.774s-1.825.788-3.75 1.75m101 11.626c0 .207.787.995 1.75 1.75 1.586 1.243 1.621 1.208.378-.378-1.307-1.666-2.128-2.195-2.128-1.372M51.75 97.689c-1.548.405-1.763 1.98-1.859 13.634-.1 12.178-1.268 27.155-1.846 23.677-.244-1.467-1.641 2.762-2.729 8.264-.803 4.058 1.393 8.37 5.177 10.166 2.551 1.21 6.711 1.566 18.158 1.555 9.957-.011 14.355-.335 13.349-.985-1.108-.716-1.155-.973-.179-.985.727-.008 1.997-.69 2.822-1.515 1.333-1.333.075-1.504-11.322-1.532-11.294-.028-12.598-.201-10.946-1.452 1.083-.82 1.625-2.074 1.282-2.968-.377-.981-.035-1.548.933-1.548.841 0 1.25-.45.91-1s.035-1 .833-1 1.733-1.125 2.078-2.5c.691-2.755 2.343-3.304 3.203-1.063.994 2.59 3.222.491 3.931-3.702.381-2.259 1.574-4.821 2.65-5.692 1.077-.872 2.808-4.05 3.848-7.064 1.337-3.873 1.922-4.746 1.995-2.979.094 2.298.172 2.339.962.5.473-1.1.891-3.394.93-5.098.06-2.653-.468-3.33-3.68-4.713-4.996-2.15-10.427-3.436-18.022-4.267-3.45-.377-6.483-1.025-6.739-1.44-1.093-1.769 4.544-1.731 15.804.106 6.626 1.081 12.486 1.819 13.022 1.64 1.913-.637-10.951-5.605-18.523-7.153-7.519-1.536-12.499-1.811-16.042-.886m143.187 8.561c-.044 5.691-.333 7.584-.93 6.102-.477-1.181-1.348-2.445-1.937-2.809-.588-.363-1.07-1.955-1.07-3.537v-2.876l-8.687 4.071c-9.437 4.422-12.971 4.889-22.717 2.999-6.248-1.212-62.755-1.838-64.571-.716-1.882 1.164-1.055 5.327 1.71 8.613 7.089 8.425 22.388 15.032 34.12 14.735 4.132-.105 5.226-.317 2.895-.56-2.062-.216-3.739-.703-3.725-1.082s3.247-2.244 7.183-4.143c3.937-1.9 10.411-5.577 14.386-8.172 3.976-2.596 7.494-4.454 7.817-4.13 2.155 2.154-1.556 16.972-5.949 23.755l-2.59 4 2.559-3c2.433-2.852 2.559-2.889 2.564-.75.003 1.238.471 2.25 1.04 2.25.698 0 .681.733-.053 2.25-.826 1.708-.453 1.528 1.55-.75 4.308-4.9 8.43-16.204 8.456-23.191.012-3.077 1.49-5.164 2.759-3.895.338.337.952 3.422 1.365 6.855 1.183 9.827 2.207 11.731 6.304 11.731 1.906 0 3.744.45 4.084 1s1.383 1 2.318 1c2.203 0 4.666 3.656 2.896 4.297-.668.242.9.772 3.483 1.177 3.083.484 4.847 1.302 5.134 2.382.24.904.489-9.043.553-22.106.064-13.062-.109-23.75-.384-23.75s-.529 3.713-.563 8.25m29.142-5.667c.048 1.165.285 1.402.604.605.289-.722.253-1.585-.079-1.917s-.568.258-.525 1.312m1 4c.048 1.165.285 1.402.604.605.289-.722.253-1.585-.079-1.917s-.568.258-.525 1.312M16.195 106.5c.02 1.65.244 2.204.498 1.231s.237-2.323-.037-3-.481.119-.461 1.769m183.784 20.832c-.439 18.168-.642 19.952-2.42 21.25-1.537 1.123-6.843 1.434-25.5 1.497-12.958.043-22.994.307-22.303.585.691.279 1.002.918.691 1.421s.024.922.744.93c.955.011.903.286-.191 1.015-1.014.675 6.544.913 23.338.734l24.838-.264 2.451-2.851c2.051-2.386 2.24-3.103 1.162-4.4-.908-1.092-1.443-7.194-1.81-20.649l-.52-19.1zM116 110.895c0 .492 4.162.94 9.25.996 6.366.069 8.782-.205 7.75-.88-1.879-1.228-17-1.332-17-.116m29.187 6.844c-6.768 4.308-9.884 6.83-9.065 7.336 2.088 1.291 22.878-10.67 22.878-13.163 0-2.088-4.083-.366-13.813 5.827M84.158 114c0 1.375.227 1.938.504 1.25.278-.687.278-1.812 0-2.5-.277-.687-.504-.125-.504 1.25m-69.002 8.619a104.25 104.25 0 0 0 14.487 54.71c2.005 3.394 3.656 6.709 3.668 7.365s.317 1.107.676 1 1.876 1.156 3.37 2.806c1.493 1.65.707.06-1.747-3.533-12.384-18.134-18.258-35.982-19.572-59.467l-.726-13zm167.094-8.342c-2.464 1.126-3.016 2.723-.941 2.723 1.874 0 5.167-2.593 4.092-3.223-.495-.291-1.913-.066-3.151.5M5.988 121.5c-.117 3.85-.145 10.825-.062 15.5.86 48.748 37.521 97.51 84.909 112.935 12.309 4.007 21.892 5.461 35.665 5.413 57.352-.2 105.179-39.051 119.926-97.417 2.709-10.725 4.415-25.415 2.663-22.931-.832 1.18-1.062.78-1.074-1.872-.013-2.884-.232-3.192-1.515-2.128-1.305 1.083-1.518.415-1.64-5.128l-.14-6.372-.728 7.5c-2.668 27.454-14.701 53.246-34.467 73.877-15.916 16.612-31.978 26.22-53.867 32.223-3.952 1.084-5.434 1.746-3.309 1.478 2.117-.266 6.696-.218 10.177.107 5.351.499 6.307.877 6.19 2.441-.26 3.448-17.858 8.098-35.716 9.437-56.39 4.228-112.54-41.587-122.486-99.944-.833-4.885-1.55-10.96-1.593-13.5s-.673-7.769-1.4-11.619l-1.321-7zm64.166-2.062c.191.917.796 1.644 1.346 1.615 1.484-.079 1.212-2.316-.346-2.835-.841-.28-1.215.177-1 1.22m56.115 23.255c.973.254 2.323.237 3-.037s-.119-.481-1.769-.461-2.204.244-1.231.498m2.81 5.89c.048 1.165.285 1.402.604.605.289-.722.253-1.585-.079-1.917s-.568.258-.525 1.312m-7 14c.048 1.165.285 1.402.604.605.289-.722.253-1.585-.079-1.917s-.568.258-.525 1.312m4.079 1.417c0 1.375.227 1.938.504 1.25.278-.687.278-1.812 0-2.5-.277-.687-.504-.125-.504 1.25M144 177.633c0 11.359-.361 16.372-1.25 17.369-1.048 1.175-.991 1.207.352.2 1.387-1.04 3.081-11.515 3.106-19.202.008-2.652-1.402-13.486-1.812-13.917-.218-.229-.396 6.769-.396 15.55m-18-7.162c0 .408 1.346 2.441 2.992 4.519 2.639 3.331 2.811 3.929 1.458 5.052-1.598 1.326-9.53 1.645-11.447.46-.792-.49-.772-1.075.071-2.091.904-1.089.88-1.411-.107-1.411-.95 0-.893-.448.226-1.75 4.843-5.639 1.785-3.116-5.838 4.817-4.87 5.068-8.793 9.822-8.718 10.563s-.262 1.102-.75.8c-.488-.301-.887-.071-.887.511 0 .709 6.442 1.059 19.5 1.059 18.02 0 19.5-.135 19.5-1.777 0-2.517-2.926-6.387-4.223-5.585-.677.418-.796.202-.315-.577.486-.786-.691-2.786-3.181-5.404-2.174-2.286-4.926-5.455-6.117-7.042S126 170.064 126 170.471m-10.128 8.279c-1.243 1.586-1.208 1.621.378.378.963-.755 1.75-1.543 1.75-1.75 0-.823-.821-.294-2.128 1.372m23.734 10.666c.497 1.296-1.158 1.566-11.262 1.836l-11.844.318 12.25.215c10.099.177 12.25-.038 12.25-1.226 0-.793-.445-1.716-.989-2.052-.562-.347-.737.044-.405.909m-29.856 2.246c.688.278 1.813.278 2.5 0 .688-.277.125-.504-1.25-.504s-1.937.227-1.25.504M41 193.313c0 .172 1.462 1.635 3.25 3.25l3.25 2.937-2.937-3.25c-2.738-3.029-3.563-3.71-3.563-2.937m9.5 9.553c1.65 1.826 4.8 4.705 7 6.398 4.685 3.606 3.177 1.987-4.5-4.832-3.193-2.836-4.242-3.493-2.5-1.566m11.5 9.512c0 .207.788.995 1.75 1.75 1.586 1.243 1.621 1.208.378-.378-1.307-1.666-2.128-2.195-2.128-1.372m12 8.052c0 .275.9.981 2 1.57s2 .845 2 .57-.9-.981-2-1.57-2-.845-2-.57m103.666 7.997c-.301.785.124 1.984.944 2.664 1.2.996 1.796.931 3.059-.331.862-.862 1.263-2.061.89-2.664-.972-1.573-4.247-1.352-4.893.331M172 232.441c0 .857.45 1.559 1 1.559s1-.423 1-.941-.45-1.219-1-1.559-1 .084-1 .941m-27.187 3.242c.721.289 1.584.253 1.916-.079s-.258-.568-1.312-.525c-1.165.048-1.402.285-.604.604"/></svg>