<svg xmlns="http://www.w3.org/2000/svg" width="256" height="256"><path fill="#1976D2" fill-opacity=".016" fill-rule="evenodd" d="M0 128.004v128.004l128.25-.254 128.25-.254.254-127.75L257.008 0H0zm.485.496c0 70.4.119 99.053.265 63.672s.146-92.98 0-128S.485 58.1.485 128.5"/><path fill="#1976D2" fill-opacity=".203" fill-rule="evenodd" d="M110.5 6.474c-11.228 1.79-18.963 3.966-28.932 8.139C15.857 42.121-13.467 118.866 17.419 182.5c16.622 34.246 45.168 57.639 81.926 67.137 13.44 3.474 36.533 4.389 50.287 1.994 25.89-4.508 48.297-16.235 67.036-35.083 19.174-19.286 30.476-41.043 34.948-67.278 2.351-13.792 1.473-36.12-1.956-49.77C235.655 43.751 185.126 4.545 128 5.105c-5.225.051-13.1.667-17.5 1.369m1.314 2.604c-36.54 5.36-68.529 27.091-87.707 59.58-20.518 34.76-21.454 80.385-2.39 116.546 16.28 30.881 44.409 52.988 78.783 61.92 8.021 2.084 11.175 2.334 29 2.292 18.389-.042 20.789-.258 29.794-2.685 21.655-5.834 39.3-16.072 55.333-32.104 16.032-16.033 26.27-33.678 32.104-55.333 2.424-8.996 2.644-11.424 2.696-29.794.054-18.753-.115-20.655-2.71-30.5-3.54-13.431-12.533-31.781-21.143-43.146C206.769 31.036 178.36 14.04 148 9.449c-10.224-1.547-27-1.719-36.186-.371M102 58.476v16.477l-17.25.273-17.25.274-.336 10.25L66.827 96H125V73.64c0-12.299-.286-24.449-.636-27l-.636-4.64H102zm28.82-2.226c-.22 17.505-.033 20.304 1.622 24.266 2.102 5.031 7.657 10.621 13.051 13.133 4.679 2.179 6.231 2.332 23.675 2.341l18.668.01.332-6.75c.183-3.713.192-8.437.022-10.5l-.311-3.75-15.189-.015c-8.355-.009-15.685-.346-16.29-.75-2.707-1.807-3.4-5.615-3.4-18.669V42h-22zm-63.605 57 .285 10.25 15.451.277c12.505.224 15.79.583 17.225 1.882 1.523 1.378 1.812 3.741 2.049 16.723l.275 15.118h23l-.054-17.5c-.059-19.384-.587-21.674-6.564-28.481-1.852-2.11-5.621-4.885-8.375-6.168-4.697-2.187-6.202-2.332-24.292-2.341L66.93 103zM131 130.485V158h23v-33.953l17.25-.273 17.25-.274-.03-10-.03-10-28.72-.265-28.72-.266zm-50.333 44.182C79.613 175.72 79.891 181 81 181c.55 0 1-1.575 1-3.5 0-3.597-.182-3.984-1.333-2.833M57.2 176.2c-2.487 2.487-.049 6.581 2.834 4.758 1.226-.776 1.18-.93-.284-.943-.962-.008-1.75-.69-1.75-1.515s.45-1.5 1-1.5 1-.45 1-1c0-1.356-1.34-1.26-2.8.2m33.529-.596c-1.05 1.05-.899 5.396.188 5.396.504 0 1.143-.562 1.421-1.25.403-1 .52-1 .583 0 .155 2.455 2.079 1.199 2.079-1.357 0-1.854-.414-2.448-1.435-2.056-.79.303-1.587.098-1.771-.456-.185-.553-.664-.678-1.065-.277m23.423.281c-1.916 1.214-1.005 4.526 1.359 4.943 1.977.35 1.977.343-.011-1.167-1.854-1.407-1.872-1.568-.25-2.197.963-.373 1.75-1.08 1.75-1.571 0-1.116-1.094-1.119-2.848-.008m11.823 1.68c-1.271 3.343-1.341 3.185 1.429 3.185 2.214 0 2.325-.228 1.403-2.875-1.231-3.53-1.593-3.569-2.832-.31m-56.859.685c-.084 2.002.36 2.746 1.634 2.735 1.111-.01 1.336-.284.616-.75-.624-.404-1.359-1.635-1.634-2.735-.383-1.533-.527-1.358-.616.75m33.884.25c0 1.375.45 2.5 1 2.5s1-1.125 1-2.5-.45-2.5-1-2.5-1 1.125-1 2.5m-47.352 11.75c-.347 2.887-.635 9.188-.639 14L55 213h7.122c6.218 0 6.965-.191 5.878-1.5-.715-.861-2.896-1.5-5.122-1.5H59v-7.86c0-9.049-.943-17.14-1.997-17.14-.398 0-1.008 2.363-1.355 5.25m19.978 2c-6.374 14.174-6.683 15.476-3.361 14.202.854-.328 2.098-1.913 2.765-3.524 1.038-2.507 1.756-2.928 4.993-2.928 3.259 0 4.064.482 5.844 3.5 2.071 3.509 4.133 4.617 4.133 2.22 0-1.644-6.778-17.747-8.181-19.438-1.918-2.312-2.891-1.374-6.193 5.968m26.041-6.583c-.367.366-.667 6.666-.667 14 0 12.666.1 13.333 2 13.333 1.832 0 2-.667 2-7.948v-7.947l5.25-.303c6.894-.397 6.736-2.167-.25-2.802-5.084-.462-5.524-.704-5.811-3.198-.303-2.625-.155-2.707 5.421-3 3.465-.183 5.895-.796 6.144-1.552.304-.919-1.417-1.25-6.504-1.25-3.804 0-7.217.3-7.583.667M119 193.545c0 7.74.231 8.777 2.455 11 4.738 4.739 12.496 2.483 14.152-4.115.637-2.54-.171-14.328-1.043-15.199-1.514-1.514-2.564 1.866-2.564 8.257 0 7.393-1.3 10.512-4.38 10.512-3.317 0-4.57-2.572-5.236-10.75-.484-5.948-1.05-8.25-2.028-8.25-1.036 0-1.356 2.019-1.356 8.545m21.216 2.205.284 10.75 6.337.3c6.139.291 9.805-.952 8.593-2.913-.301-.488-2.996-.887-5.989-.887-5.357 0-5.441-.045-5.441-2.948 0-2.851.172-2.957 5.25-3.25 6.856-.394 6.339-2.217-.738-2.602-5.347-.291-5.512-.387-5.512-3.2 0-2.824.149-2.908 5.671-3.2 3.418-.181 5.835-.797 6.083-1.55.306-.927-1.558-1.25-7.204-1.25h-7.618zm18.784.323c0 10.006.169 11.042 1.75 10.741 1.425-.271 1.843-1.723 2.25-7.823l.5-7.491 3.422 5.922c3.929 6.799 6.427 9.578 8.612 9.578 1.301 0 1.491-1.632 1.25-10.75-.232-8.763-.561-10.75-1.784-10.75-1.17 0-1.565 1.61-1.795 7.309l-.295 7.31-4.935-7.56c-3.453-5.289-5.541-7.559-6.955-7.559-1.905 0-2.02.63-2.02 11.073m21.694-10.433c-1.522 1.521-.524 2.36 2.806 2.36h3.5v8.893c0 6.707.345 9.025 1.402 9.431 2.292.879 2.598-.231 2.598-9.427v-8.77l3.173-.314c1.745-.172 3.329-.789 3.519-1.37.39-1.191-15.844-1.958-16.998-.803m18.936 1.61c-1.228 4.582-.688 17.457.783 18.678.849.704 3.936 1.052 7.74.872 5.087-.241 6.392-.643 6.66-2.05.288-1.511-.495-1.75-5.74-1.75-6.057 0-6.073-.008-6.073-2.948 0-2.844.181-2.958 5.171-3.25 7.407-.433 7.756-2.802.412-2.802-5.515 0-5.583-.036-5.583-2.948 0-2.844.181-2.958 5.171-3.25 3.015-.176 5.344-.823 5.584-1.552.303-.92-1.429-1.25-6.555-1.25-6.379 0-7.018.19-7.57 2.25m-120.602 5.176c-1.498 3.94-1.301 4.574 1.42 4.574 2.32 0 2.391-.17 1.352-3.25-1.478-4.379-1.59-4.433-2.772-1.324"/><path fill="#1976D2" fill-opacity=".355" fill-rule="evenodd" d="M107.5 7.608C74.993 13.41 44.888 33.144 26.715 60.56c-10.522 15.875-16.209 30.169-19.26 48.419-2.502 14.96-1.635 36.882 1.997 50.521 12.533 47.068 49.677 81.805 97.505 91.189 12.638 2.48 33.626 2.209 47.043-.606 24.225-5.084 45.944-16.998 63.238-34.69 17.022-17.414 27.78-37.53 32.867-61.459 2.82-13.264 3.08-34.224.581-46.977-10.029-51.201-49.879-90.656-100.477-99.48-10.574-1.844-32.016-1.778-42.709.131m4.5.863C42.881 18.696-4.095 85.022 9.637 153c7.178 35.53 30.634 66.985 62.561 83.894 28.896 15.303 63.712 18.266 94.9 8.074 36.236-11.842 66.028-41.634 77.87-77.87 8.999-27.538 7.711-58.731-3.525-85.373-15.592-36.971-48.818-64.003-88.691-72.157C141.573 7.282 123.353 6.791 112 8.471M140 64l-8.5.5-.342 3.5c-.655 6.697 1.724 13.915 6.193 18.787 7.033 7.667 10.225 8.57 31.899 9.031l18.75.398V76h-15.326c-14.726 0-15.41-.09-17.5-2.314C153.78 72.202 153 70.09 153 67.802c0-4.301-.755-4.522-13-3.802m-36.921 1.583c.048 1.165.285 1.402.604.605.289-.722.253-1.585-.079-1.917s-.568.258-.525 1.312m19.922.667c.001 2.198-.231 2.245-10 2.034L103 68.067V76H68v20h56V80c0-8.8-.225-16-.5-16s-.5 1.013-.499 2.25M68 112.922V123h15.045c14.641 0 15.112.066 17.5 2.455 2.382 2.381 2.455 2.89 2.455 17V157h22v-16.322c0-18.8-1.054-23.367-6.744-29.227-6.782-6.982-10.305-7.908-31.506-8.279L68 102.844zm63.727-9.316c-.333.333-.646 12.483-.695 27L130.943 157h23.366l-.642-16.476-.642-16.477 17.237-.273 17.238-.274.285-10.25.285-10.25h-27.868c-15.328 0-28.141.273-28.475.606m56.746 89.644c-1.127 3.035-.926 12.083.277 12.492.922.313 1.25-1.432 1.25-6.659 0-6.723-.495-8.612-1.527-5.833m-114.135 3.5c-.858 2.063-2.197 4.988-2.975 6.5-1.259 2.448-1.237 2.75.198 2.75.887 0 2.122-1.35 2.745-3 1.035-2.742 1.533-3 5.792-3 4.234 0 4.773.274 5.902 3 .683 1.65 1.869 3 2.635 3 1.147 0 1.104-.661-.24-3.75a294 294 0 0 1-2.732-6.5c-1.376-3.436-3.1-3.627-2.252-.25.583 2.323.37 2.5-3.009 2.5-3.338 0-3.596-.204-3.157-2.5.725-3.792-1.144-2.989-2.907 1.25m92.255-2.9c-.29.468.924 3.28 2.696 6.25 2.235 3.745 3.956 5.504 5.616 5.739 2.342.332 2.38.216 1.802-5.392-.702-6.797-2.195-8.982-2.549-3.731-.304 4.522-.977 5.358-2.346 2.913-.571-1.02-1.849-2.666-2.842-3.659-.992-.992-1.541-2.066-1.22-2.387s.31-.583-.024-.583c-.335 0-.844.383-1.133.85m34.136-.246c-.401.401-.729 3.354-.729 6.563V206h6.941c8.827 0 10.328-1.798 1.838-2.202l-6.279-.298v-7l5.5-.587 5.5-.587-5.667-.163c-3.116-.09-5.826-.641-6.02-1.225-.195-.585-.683-.735-1.084-.334m-41.099 2.646c-1.19 4.443-.717 9.75.87 9.75 1.167 0 1.5-1.333 1.5-6 0-6.011-1.238-7.971-2.37-3.75M56 204v9h6c7.103 0 8.103-1.756 1.25-2.195l-4.75-.305-.292-7.75C57.8 191.938 56 192.958 56 204m46-.059c0 5.373.407 9.059 1 9.059.588 0 1-3.48 1-8.441 0-4.643-.45-8.719-1-9.059-.639-.395-1 2.656-1 8.441m9.269-8.248c.973.254 2.323.237 3-.037s-.119-.481-1.769-.461-2.204.244-1.231.498m8.897.607c-1.495 1.801-.807 5.2 1.607 7.95 1.015 1.156 2.993 1.75 5.825 1.75 5.031 0 7.402-2.474 7.402-7.723 0-4.177-1.554-4.257-2.381-.122-.862 4.309-2.355 5.845-5.682 5.845-3.226 0-4.097-1.047-4.881-5.868-.491-3.024-.718-3.244-1.89-1.832m24.647-.617c.721.289 1.584.253 1.916-.079s-.258-.568-1.312-.525c-1.165.048-1.402.285-.604.604m-4.372 3.782c-1.106 5.891-.364 6.535 7.528 6.535 4.021 0 7.031-.428 7.031-1 0-.556-2.667-1-6-1h-6v-3.441c0-4.688-1.745-5.434-2.559-1.094"/><path fill="#1976D2" fill-opacity=".194" fill-rule="evenodd" d="M68.116 115.75 68 123h15.5c20.547 0 19.5-1.02 19.5 19v15h22l-.044-15.75c-.034-12.239-.429-16.865-1.771-20.75-.95-2.75-2.265-4.893-2.92-4.762-.656.131-.971-.341-.7-1.048.272-.707-.569-2.285-1.869-3.506-1.728-1.623-2.363-1.826-2.363-.757 0 .804.33 1.374.734 1.267.664-.176.933.353.933 1.832 0 .289-1.463-.188-3.25-1.061l-3.25-1.585 2.5 2.038 2.5 2.038-3.25.022c-1.787.012-3.25-.423-3.25-.967 0-.567-2.518-.887-5.904-.75-3.247.132-5.695.577-5.441.989s-2.515.75-6.155.75c-4.157 0-6.388-.372-6-1 .831-1.345-.111-1.26-2.489.225-1.547.967-2.219.967-3.186 0-.674-.674-1.697-1.218-2.275-1.21s-.375.452.45.985c.901.582 1.025.975.309.985-.655.008-1.469-.435-1.809-.985s-1.379-.993-2.309-.985c-1.457.014-1.484.15-.191.985 1.32.853 1.313.971-.059.985-2.186.021-4.686-2.118-5.241-4.485-.257-1.1-.52 1.263-.584 5.25m64.02 18L132 157h21v-34h35.258l-.691-5.25c-.658-5.002-2.567-9.099-2.567-5.509 0 2.138-1.764 3.191-3.294 1.965-.663-.531-4.581-.801-8.706-.599-9.403.459-8.117.453-17.25.083-4.767-.193-7.75.076-7.75.698 0 .578-.515.497-1.2-.188-1.532-1.532-3.144-1.566-2.205-.045.449.725.274.882-.469.423-2.219-1.372-7.247-1.592-6.511-.285.49.872.305.86-.668-.043-1.608-1.492-3.323-1.667-2.447-.25.34.55.173 1-.371 1-.545 0-1.185-1.013-1.423-2.25-.239-1.237-.495 8.213-.57 21m-42.872-20.032c1.52.229 3.77.223 5-.014s-.014-.425-2.764-.418-3.756.202-2.236.432"/></svg>